<svg width="212" height="212" viewBox="0 0 212 212" fill="none" xmlns="http://www.w3.org/2000/svg">
<g clip-path="url(#clip0_347_3462)">
<path fill-rule="evenodd" clip-rule="evenodd" d="M57.8172 96.5094C75.3894 96.5094 89.6344 82.2644 89.6344 64.6922C89.6344 47.12 75.3894 32.875 57.8172 32.875C40.245 32.875 26 47.12 26 64.6922C26 82.2644 40.245 96.5094 57.8172 96.5094ZM159.019 96.1444C174.296 93.8151 186.001 80.6205 186.001 64.6922C186.001 47.12 171.756 32.875 154.184 32.875C136.611 32.875 122.366 47.12 122.366 64.6922C122.366 68.5114 123.039 72.1733 124.273 75.5661C125.157 78.4879 125.633 81.5875 125.633 84.7981C125.633 99.9293 115.071 112.594 100.917 115.82C85.5226 118.047 73.696 131.296 73.696 147.308C73.696 164.88 87.941 179.125 105.513 179.125C123.085 179.125 137.33 164.88 137.33 147.308C137.33 143.265 136.577 139.399 135.202 135.842C134.433 133.102 134.022 130.214 134.022 127.229C134.022 111.998 144.724 99.2665 159.019 96.1444Z" fill="white"/>
<path d="M155.847 64.6377L106 147.893" stroke="#D3D3D3"/>
<path d="M159.029 64.6378C159.029 66.395 157.605 67.8195 155.848 67.8195C154.091 67.8195 152.666 66.395 152.666 64.6378C152.666 62.8806 154.091 61.4561 155.848 61.4561C157.605 61.4561 159.029 62.8806 159.029 64.6378Z" fill="white" stroke="#189EFF" stroke-width="2"/>
<path d="M109.182 147.362C109.182 149.12 107.757 150.544 106 150.544C104.243 150.544 102.818 149.12 102.818 147.362C102.818 145.605 104.243 144.181 106 144.181C107.757 144.181 109.182 145.605 109.182 147.362Z" fill="white" stroke="#189EFF" stroke-width="2"/>
<path d="M61.4572 64.6378C61.4572 66.395 60.0327 67.8195 58.2755 67.8195C56.5183 67.8195 55.0938 66.395 55.0938 64.6378C55.0938 62.8806 56.5183 61.4561 58.2755 61.4561C60.0327 61.4561 61.4572 62.8806 61.4572 64.6378Z" fill="white" stroke="#189EFF" stroke-width="2"/>
</g>
<rect x="13" y="13" width="186" height="186" stroke="white" stroke-opacity="0.15" stroke-width="26"/>
<rect y="186" width="26" height="26" fill="white" fill-opacity="0.21"/>
<rect width="26" height="26" fill="white" fill-opacity="0.21"/>
<rect x="186" y="186" width="26" height="26" fill="white" fill-opacity="0.21"/>
<rect x="186" width="26" height="26" fill="white" fill-opacity="0.21"/>
<defs>
<clipPath id="clip0_347_3462">
<rect width="160" height="160" fill="white" transform="translate(26 26)"/>
</clipPath>
</defs>
</svg>
