<svg width="21" height="20" viewBox="0 0 21 20" fill="none" xmlns="http://www.w3.org/2000/svg">
<path fill-rule="evenodd" clip-rule="evenodd" d="M9.66667 10.4882L6.92259 7.74408C6.59715 7.41864 6.06951 7.41864 5.74408 7.74408C5.41864 8.06951 5.41864 8.59715 5.74408 8.92259L9.32149 12.5C9.97236 13.1509 11.0276 13.1509 11.6785 12.5L15.2559 8.92259C15.5814 8.59715 15.5814 8.06952 15.2559 7.74408C14.9305 7.41864 14.4028 7.41864 14.0774 7.74408L11.3333 10.4882L11.3333 3.33333C11.3333 2.8731 10.9602 2.5 10.5 2.5C10.0398 2.5 9.66667 2.8731 9.66667 3.33333L9.66667 10.4882ZM3.83333 10.8333C4.29357 10.8333 4.66667 11.2064 4.66667 11.6667V15C4.66667 15.4602 5.03976 15.8333 5.5 15.8333H15.5C15.9602 15.8333 16.3333 15.4602 16.3333 15V11.6667C16.3333 11.2064 16.7064 10.8333 17.1667 10.8333C17.6269 10.8333 18 11.2064 18 11.6667V15C18 16.3807 16.8807 17.5 15.5 17.5H5.5C4.11929 17.5 3 16.3807 3 15V11.6667C3 11.2064 3.3731 10.8333 3.83333 10.8333Z" fill="black"/>
</svg>
