<svg width="55" height="36" viewBox="0 0 55 36" fill="none" xmlns="http://www.w3.org/2000/svg">
<path d="M11.1288 34.2649C16.3295 34.2649 20.5455 30.0489 20.5455 24.8482C20.5455 19.6476 16.3295 15.4316 11.1288 15.4316C5.92811 15.4316 1.71212 19.6476 1.71212 24.8482C1.71212 30.0489 5.92811 34.2649 11.1288 34.2649Z" fill="#C0C0C0"/>
<path d="M11.1288 35.9771C4.99255 35.9771 0 30.9845 0 24.8482C0 18.712 4.99255 13.7194 11.1288 13.7194C17.2651 13.7194 22.2576 18.712 22.2576 24.8482C22.2576 30.9845 17.2651 35.9771 11.1288 35.9771ZM11.1288 17.1437C6.88102 17.1437 3.42425 20.6005 3.42425 24.8482C3.42425 29.096 6.88102 32.5528 11.1288 32.5528C15.3766 32.5528 18.8334 29.096 18.8334 24.8482C18.8334 20.6005 15.3766 17.1437 11.1288 17.1437Z" fill="#C0C0C0"/>
<path d="M40.2349 34.2649C45.4356 34.2649 49.6516 30.0489 49.6516 24.8482C49.6516 19.6476 45.4356 15.4316 40.2349 15.4316C35.0342 15.4316 30.8182 19.6476 30.8182 24.8482C30.8182 30.0489 35.0342 34.2649 40.2349 34.2649Z" fill="#C0C0C0"/>
<path d="M40.2349 35.9771C34.0986 35.9771 29.1061 30.9845 29.1061 24.8482C29.1061 18.712 34.0986 13.7194 40.2349 13.7194C46.3711 13.7194 51.3637 18.712 51.3637 24.8482C51.3637 30.9845 46.3711 35.9771 40.2349 35.9771ZM40.2349 17.1437C35.9871 17.1437 32.5303 20.6005 32.5303 24.8482C32.5303 29.096 35.9871 32.5528 40.2349 32.5528C44.4827 32.5528 47.9395 29.096 47.9395 24.8482C47.9395 20.6005 44.4827 17.1437 40.2349 17.1437Z" fill="#C0C0C0"/>
<path d="M1.71212 25.7043C0.765319 25.7043 0 24.939 0 23.9922C0 10.7746 10.7521 0.0224609 23.9697 0.0224609C24.9165 0.0224609 25.6818 0.78778 25.6818 1.73458C25.6818 2.68139 24.9165 3.44671 23.9697 3.44671C12.6406 3.44671 3.42425 12.6631 3.42425 23.9922C3.42425 24.939 2.65893 25.7043 1.71212 25.7043Z" fill="#C0C0C0"/>
<path d="M30.8182 25.7043C29.8714 25.7043 29.1061 24.939 29.1061 23.9922C29.1061 10.7746 39.8582 0.0224609 53.0758 0.0224609C54.0226 0.0224609 54.7879 0.78778 54.7879 1.73458C54.7879 2.68139 54.0226 3.44671 53.0758 3.44671C41.7467 3.44671 32.5303 12.6631 32.5303 23.9922C32.5303 24.939 31.765 25.7043 30.8182 25.7043Z" fill="#C0C0C0"/>
</svg>
