<svg width="16" height="16" viewBox="0 0 16 16" fill="none" xmlns="http://www.w3.org/2000/svg">
<circle cx="3.45703" cy="4.10522" r="3" fill="white"/>
<circle cx="12.543" cy="4.10522" r="3" fill="white"/>
<circle cx="7.95312" cy="11.8949" r="3" fill="white"/>
<path fill-rule="evenodd" clip-rule="evenodd" d="M7.41992 8.94699C8.80475 8.68118 9.85105 7.46321 9.85105 6.00086C9.85105 5.6655 9.79603 5.343 9.69451 5.04188L9.72214 5.03088L9.88037 5.11028C10.2865 6.18539 11.3252 6.94995 12.5425 6.94995C12.7248 6.94995 12.9032 6.93279 13.076 6.9L13.1083 7.04893C11.7061 7.30075 10.6421 8.52691 10.6421 10.0016C10.6421 10.3227 10.6925 10.6321 10.7859 10.9221L10.6516 10.968L10.4684 10.8652C10.0628 9.87581 9.09006 9.17896 7.95457 9.17896C7.80854 9.17896 7.66521 9.19048 7.52543 9.21267L7.47996 9.18713L7.41992 8.94699Z" fill="white"/>
</svg>
