<svg width="20" height="20" viewBox="0 0 20 20" fill="none" xmlns="http://www.w3.org/2000/svg">
<g clip-path="url(#clip0_231_542)">
<path d="M10 0C4.75334 0 0.5 4.4772 0.5 10C0.5 14.6896 3.56736 18.6248 7.70518 19.7056V13.056H5.74628V10H7.70518V8.6832C7.70518 5.2796 9.16856 3.702 12.3431 3.702C12.945 3.702 13.9835 3.8264 14.4084 3.9504V6.7204C14.1842 6.6956 13.7947 6.6832 13.3109 6.6832C11.7533 6.6832 11.1514 7.3044 11.1514 8.9192V10H14.2545L13.7213 13.056H11.1514V19.9268C15.8554 19.3288 19.5004 15.1128 19.5004 10C19.5 4.4772 15.2467 0 10 0Z" fill="white"/>
</g>
<defs>
<clipPath id="clip0_231_542">
<rect width="19" height="20" fill="white" transform="translate(0.5)"/>
</clipPath>
</defs>
</svg>
