<svg width="16" height="16" viewBox="0 0 16 16" fill="none" xmlns="http://www.w3.org/2000/svg">
<rect width="16" height="16" rx="4" fill="white"/>
<circle cx="4.72099" cy="5.18889" r="2.16533" fill="black"/>
<circle cx="11.2786" cy="5.18889" r="2.16533" fill="black"/>
<circle cx="7.96709" cy="10.8112" r="2.16533" fill="black"/>
<path fill-rule="evenodd" clip-rule="evenodd" d="M7.58105 8.68347C8.58057 8.4916 9.33574 7.6125 9.33574 6.55702C9.33574 6.31498 9.29603 6.08222 9.22276 5.86489L9.24275 5.85693L9.3569 5.91421C9.65001 6.69021 10.3997 7.24206 11.2783 7.24206C11.41 7.24206 11.5387 7.22967 11.6635 7.206L11.6868 7.3135C10.6747 7.49523 9.90668 8.38026 9.90668 9.44466C9.90668 9.67645 9.9431 9.89974 10.0105 10.1091L9.91359 10.1422L9.78134 10.068C9.48856 9.35387 8.78647 8.8509 7.96691 8.8509C7.86152 8.8509 7.75807 8.85922 7.65719 8.87523L7.62439 8.85682L7.58105 8.68347Z" fill="black"/>
</svg>
