<svg width="56" height="50" viewBox="0 0 56 50" fill="none" xmlns="http://www.w3.org/2000/svg">
<path d="M20.2143 13.5481C20.2143 10.3858 17.5998 7.82227 14.3747 7.82227C11.1496 7.82227 8.53516 10.3858 8.53516 13.5481C8.53516 16.7103 11.1496 19.2739 14.3747 19.2739C17.5998 19.2739 20.2143 16.7103 20.2143 13.5481Z" stroke="white" stroke-width="3"/>
<path d="M47.4653 13.5481C47.4653 10.3858 44.8508 7.82227 41.6257 7.82227C38.4006 7.82227 35.7861 10.3858 35.7861 13.5481C35.7861 16.7103 38.4006 19.2739 41.6257 19.2739C44.8508 19.2739 47.4653 16.7103 47.4653 13.5481Z" stroke="white" stroke-width="3"/>
<path d="M33.8393 36.4514C33.8393 33.2891 31.2248 30.7256 27.9997 30.7256C24.7746 30.7256 22.1602 33.2891 22.1602 36.4514C22.1602 39.6137 24.7746 42.1772 27.9997 42.1772C31.2248 42.1772 33.8393 39.6137 33.8393 36.4514Z" stroke="white" stroke-width="3"/>
</svg>
