<svg width="20" height="20" viewBox="0 0 20 20" fill="none" xmlns="http://www.w3.org/2000/svg">
<g clip-path="url(#clip0_231_545)">
<path d="M18.0936 0H1.90273C1.12715 0 0.5 0.644531 0.5 1.44141V18.5547C0.5 19.3516 1.12715 20 1.90273 20H18.0936C18.8691 20 19.5 19.3516 19.5 18.5586V1.44141C19.5 0.644531 18.8691 0 18.0936 0ZM6.13691 17.043H3.3166V7.49609H6.13691V17.043ZM4.72676 6.19531C3.82129 6.19531 3.09023 5.42578 3.09023 4.47656C3.09023 3.52734 3.82129 2.75781 4.72676 2.75781C5.62852 2.75781 6.35957 3.52734 6.35957 4.47656C6.35957 5.42187 5.62852 6.19531 4.72676 6.19531ZM16.6908 17.043H13.8742V12.4023C13.8742 11.2969 13.8557 9.87109 12.4084 9.87109C10.9426 9.87109 10.7199 11.0781 10.7199 12.3242V17.043H7.90703V7.49609H10.6086V8.80078H10.6457C11.0205 8.05078 11.9408 7.25781 13.3102 7.25781C16.1639 7.25781 16.6908 9.23438 16.6908 11.8047V17.043V17.043Z" fill="white"/>
</g>
<defs>
<clipPath id="clip0_231_545">
<rect width="19" height="20" fill="white" transform="translate(0.5)"/>
</clipPath>
</defs>
</svg>
