<svg width="21" height="20" viewBox="0 0 21 20" fill="none" xmlns="http://www.w3.org/2000/svg">
<path d="M15.2438 9.26961C15.1576 9.22832 15.0701 9.18858 14.9815 9.15053C14.8271 6.30606 13.2728 4.6776 10.663 4.66094C10.6512 4.66086 10.6394 4.66086 10.6276 4.66086C9.06662 4.66086 7.76836 5.32718 6.96928 6.53966L8.4046 7.52425C9.00153 6.61857 9.93837 6.4255 10.6283 6.4255C10.6363 6.4255 10.6443 6.4255 10.6522 6.42557C11.5115 6.43105 12.1599 6.6809 12.5796 7.16813C12.885 7.52284 13.0893 8.01302 13.1904 8.63165C12.4286 8.50216 11.6046 8.46234 10.7238 8.51284C8.24248 8.65577 6.64732 10.1029 6.75445 12.1137C6.80882 13.1337 7.31696 14.0112 8.18522 14.5845C8.91933 15.0691 9.8648 15.306 10.8474 15.2524C12.1451 15.1813 13.1631 14.6861 13.8733 13.7808C14.4127 13.0933 14.7539 12.2024 14.9045 11.0798C15.5229 11.453 15.9813 11.9442 16.2344 12.5346C16.6648 13.5382 16.6899 15.1875 15.3442 16.5321C14.1651 17.71 12.7478 18.2196 10.6059 18.2353C8.22993 18.2177 6.43301 17.4557 5.26471 15.9705C4.17069 14.5798 3.60529 12.571 3.5842 10C3.60529 7.42894 4.17069 5.42017 5.26471 4.02945C6.43301 2.54426 8.2299 1.78229 10.6059 1.76464C12.9991 1.78243 14.8273 2.54806 16.0403 4.04042C16.6351 4.77225 17.0836 5.69258 17.3792 6.76566L19.0612 6.3169C18.7028 4.99606 18.139 3.85789 17.3717 2.91396C15.8166 1.0007 13.5422 0.0203279 10.6117 0H10.6C7.67549 0.0202573 5.42659 1.00435 3.91577 2.92493C2.57136 4.634 1.87787 7.01205 1.85457 9.99297L1.85449 10L1.85457 10.007C1.87787 12.9879 2.57136 15.366 3.91577 17.0751C5.42659 18.9956 7.67549 19.9798 10.6 20H10.6117C13.2118 19.982 15.0445 19.3013 16.5543 17.7928C18.5296 15.8194 18.4701 13.3457 17.8191 11.8272C17.352 10.7382 16.4615 9.85377 15.2438 9.26961ZM10.7545 13.4903C9.66704 13.5516 8.53724 13.0634 8.48153 12.0179C8.44024 11.2427 9.03322 10.3777 10.8213 10.2747C11.0261 10.2629 11.227 10.2571 11.4244 10.2571C12.0739 10.2571 12.6815 10.3202 13.2339 10.4409C13.0278 13.0141 11.8193 13.4319 10.7545 13.4903Z" fill="white"/>
</svg>
